<?xml version="1.0" encoding="UTF-8" standalone="no"?>
<svg
   xmlns:dc="http://purl.org/dc/elements/1.1/"
   xmlns:cc="http://creativecommons.org/ns#"
   xmlns:rdf="http://www.w3.org/1999/02/22-rdf-syntax-ns#"
   xmlns:svg="http://www.w3.org/2000/svg"
   xmlns="http://www.w3.org/2000/svg"
   xmlns:sodipodi="http://sodipodi.sourceforge.net/DTD/sodipodi-0.dtd"
   xmlns:inkscape="http://www.inkscape.org/namespaces/inkscape"
   version="1.0"
   width="1070px"
   height="277px"
   viewBox="0 0 10700 2770"
   preserveAspectRatio="xMidYMid meet"
   id="svg2"
   inkscape:version="0.91 r13725"
   sodipodi:docname="logo.svg">
  <metadata
     id="metadata30">
    <rdf:RDF>
      <cc:Work
         rdf:about="">
        <dc:format>image/svg+xml</dc:format>
        <dc:type
           rdf:resource="http://purl.org/dc/dcmitype/StillImage" />
      </cc:Work>
    </rdf:RDF>
  </metadata>
  <defs
     id="defs28" />
  <sodipodi:namedview
     pagecolor="#ffffff"
     bordercolor="#666666"
     borderopacity="1"
     objecttolerance="10"
     gridtolerance="10"
     guidetolerance="10"
     inkscape:pageopacity="0"
     inkscape:pageshadow="2"
     inkscape:window-width="1920"
     inkscape:window-height="1018"
     id="namedview26"
     showgrid="false"
     inkscape:zoom="1.4142136"
     inkscape:cx="248.01854"
     inkscape:cy="87.609199"
     inkscape:window-x="-8"
     inkscape:window-y="-8"
     inkscape:window-maximized="1"
     inkscape:current-layer="svg2" />
  <g
     id="layer1"
     fill="#f32731"
     stroke="none">
    <path
       d="m 1261,2294 c -436,-63 -719,-261 -787,-550 -25,-106 -14,-270 26,-399 56,-176 147,-327 290,-478 80,-85 246,-227 264,-227 3,0 31,-16 63,-37 73,-46 238,-124 345,-161 468,-165 1043,-145 1247,42 92,86 95,176 9,287 -43,55 -108,123 -108,113 0,-4 -6,-1 -12,8 -7,9 -40,31 -73,49 -33,18 -89,48 -125,67 -36,19 -72,40 -80,47 -15,13 -76,45 -85,46 -6,0 -103,43 -170,75 -55.752,23.0807 -70.4586,27.7919 -106.8734,41.9476 -49.3782,13.7382 -101.0718,18.6556 -111.4153,16.271 C 1848.8284,1230.3123 1928,1186 1962,1169 c 90,-45 184,-115 208,-153 51,-83 -4,-152 -145,-182 -110,-24 -213,-27 -331,-10 -257,36 -453,130 -614,295 -139,142 -195,259 -194,403 2,173 106,277 339,338 78,21 113,24 255,24 174,-1 253,-15 362,-63 50,-23 98,-72 98,-101 0,-49 59,-46 202,11 102,41 183,114 200,180 43,170 -209,334 -589,384 -133,18 -366,17 -492,-1 z"
       id="path5"
       inkscape:connector-curvature="0"
       sodipodi:nodetypes="ccccsccccscsscccccsccccccccscccc" />
  </g>
  <g
     id="layer2"
     fill="#585859"
     stroke="none">
    <path
       d="m 4355,2709 c -1772,-11 -2636,-34 -3000,-80 -44,-5 -125,-20 -180,-34 -55,-13 -145,-33 -200,-46 C 517,2449 218,2209 136,1877 46,1514 235,1025 605,666 892,388 1307,180 1757,91 c 204,-41 328,-53 533,-53 354,1 620,73 751,203 63,62 83,102 83,169 2,118 -105,254 -299,382 -105,69 -461.25,252.5625 -504.8125,267.5625 -67,36.6875 -3.125,-17.375 69,-62 C 2430.3125,971.4375 2500,931 2544,902 c 43,-29 83,-52 88,-52 37,0 204,-153 237,-217 24,-49 28,-118 7,-166 -29,-71 -167,-152 -326,-191 -118,-28 -257,-39 -435,-33 -292,10 -512,57 -787,169 -478,194 -834,565 -950,990 -31,113 -33,344 -4,428 96,281 331,450 745,537 115,24 147,26 366,27 210,1 256,-2 365,-22 273,-50 473,-149 530,-263 26,-50 26,-124 0,-166 -43,-71 32,-40 112,45 54,58 73,107 65,173 -8,65 -30,104 -96,169 -59,57 -140,106 -250,151 l -64,26 168,6 c 221,9 537,7 505,-2 -91,-28 -164,-94 -207,-186 -25,-53 -28,-71 -28,-155 1,-118 24,-178 96,-245 86,-80 199,-116 431,-137 l 130,-12 -6,-45 c -8,-58 -34,-101 -76,-126 -30,-17 -52,-20 -155,-19 -102,0 -133,4 -210,28 -49,16 -97,29 -105,30 -12,1 -16,-17 -18,-96 -2,-86 -1,-98 16,-107 41,-22 201,-44 322,-44 178,0 268,29 346,114 83,91 86,112 82,584 l -3,390 -95,0 -95,0 -3,-43 -3,-43 -35,26 c -77,59 -154,88 -249,94 -195,14 1017,21 4245,26 1851,3 3380,8 3398,11 47,7 72,36 72,83 0,31 -6,44 -26,60 l -27,21 -2566,-2 c -1411,-1 -3074,-5 -3696,-9 z M 3110,2300 c 25,-12 64,-36 88,-53 l 42,-30 0,-135 0,-134 -77,7 c -169,15 -264,42 -322,90 -80,68 -62,222 31,266 59,27 174,22 238,-11 z"
       id="path8"
       inkscape:connector-curvature="0"
       sodipodi:nodetypes="ccccccccccccccscccccccccccccccccccccccccccccccscccccccccccsccccccccccccc"
       inkscape:export-filename="C:\Users\Benjamin\Desktop\Projets\Scripting Linux\logolarge.png"
       inkscape:export-xdpi="600"
       inkscape:export-ydpi="600" />
    <path
       d="M5670 2498 c-145 -51 -243 -160 -295 -328 -25 -83 -31 -267 -12 -369 41 -212 177 -363 365 -402 76 -15 202 -6 276 20 123 43 233 162 277 299 31 94 38 310 14 417 -36 163 -127 284 -262 348 -62 29 -78 32 -183 35 -99 2 -124 -1 -180 -20z m281 -186 c60 -31 98 -79 126 -157 14 -40 18 -81 18 -200 0 -164 -11 -214 -63 -289 -52 -75 -164 -111 -270 -85 -45 10 -67 23 -104 60 -68 68 -93 152 -93 314 0 161 25 246 93 314 54 54 92 69 178 70 49 1 72 -5 115 -27z"
       id="path10" />
    <path
       d="M7750 2511 c-99 -32 -174 -104 -211 -204 -24 -62 -24 -65 -24 -472 l0 -410 95 0 95 0 6 375 c7 408 10 433 63 486 69 69 215 48 346 -51 l35 -26 5 -392 5 -392 95 0 95 0 0 530 0 530 -95 0 -95 0 -3 -47 -3 -47 -46 35 c-92 70 -138 87 -243 91 -52 1 -106 -1 -120 -6z"
       id="path12" />
    <path
       d="M9915 2514 c-11 -2 -45 -9 -75 -15 -170 -35 -307 -172 -355 -355 -20 -76 -20 -278 0 -362 46 -193 199 -349 374 -382 223 -42 412 46 495 231 29 65 48 187 44 284 l-3 70 -361 3 -361 2 9 63 c15 115 64 195 146 240 128 70 336 45 486 -58 59 -40 66 -32 66 83 0 70 -4 103 -13 110 -7 6 -62 27 -121 47 -88 30 -125 37 -209 40 -56 2 -111 2 -122 -1z m281 -711 c-3 -16 -8 -45 -12 -65 -10 -60 -56 -122 -108 -148 -89 -43 -220 -27 -302 35 -37 29 -94 135 -94 177 l0 28 261 0 261 0 -6 -27z"
       id="path14" />
    <path
       d="M3665 2478 c-3 -7 -4 -247 -3 -533 l3 -520 100 0 100 0 3 62 3 62 72 -49 c90 -60 155 -82 233 -78 l59 3 0 103 0 104 -95 2 c-104 1 -171 24 -237 80 l-33 28 -2 371 -3 372 -98 3 c-72 2 -99 -1 -102 -10z"
       id="path16" />
    <path
       d="M4355 2478 c-3 -7 -4 -247 -3 -533 l3 -520 100 0 100 0 3 43 c3 47 11 51 36 23 9 -10 51 -36 93 -57 73 -37 81 -39 172 -39 80 0 105 4 149 24 66 30 133 103 164 179 23 56 23 62 23 472 l0 415 -95 0 -95 0 -6 -380 c-5 -390 -9 -423 -48 -469 -44 -51 -162 -62 -249 -21 -29 13 -72 38 -97 55 l-45 31 -2 392 -3 392 -98 3 c-72 2 -99 -1 -102 -10z"
       id="path18" />
    <path
       d="M6487 2484 c-4 -4 -7 -207 -7 -450 l0 -443 -52 -3 -53 -3 0 -80 0 -80 51 -3 c58 -3 64 -11 64 -89 0 -121 86 -257 192 -304 60 -26 210 -37 308 -22 l55 8 0 90 0 90 -40 -2 c-153 -10 -211 -8 -243 10 -41 22 -67 79 -75 159 l-6 57 147 3 147 3 0 80 0 80 -142 3 -143 3 -2 447 -3 447 -95 3 c-53 1 -99 0 -103 -4z"
       id="path20" />
    <path
       d="M7085 2478 c-3 -7 -4 -339 -3 -738 l3 -725 100 0 100 0 0 735 0 735 -98 3 c-72 2 -99 -1 -102 -10z"
       id="path22" />
    <path
       d="M8476 2482 c-3 -5 76 -124 174 -265 l180 -256 -180 -263 c-99 -145 -176 -266 -171 -271 4 -4 59 -6 122 -5 l114 3 120 186 120 186 125 -186 125 -186 104 -3 c57 -1 108 1 113 6 4 4 -73 123 -172 264 l-179 257 179 263 c98 145 175 267 171 271 -4 4 -59 6 -122 5 l-114 -3 -50 -77 c-27 -42 -82 -127 -120 -187 l-71 -110 -124 187 -125 187 -107 3 c-58 1 -109 -1 -112 -6z"
       id="path24" />
  </g>
</svg>
